<?xml version="1.0" standalone="no"?>
<!DOCTYPE svg PUBLIC "-//W3C//DTD SVG 1.1//EN" "http://www.w3.org/Graphics/SVG/1.1/DTD/svg11.dtd" >
<svg xmlns="http://www.w3.org/2000/svg" xmlns:xlink="http://www.w3.org/1999/xlink" version="1.1">
<metadata>
Created by FontForge 20200314 at Tue Feb 25 21:42:04 2020
 By Unknown
Copyright (c) 2019 by Christian Ja'nsky'. All rights reserved.
</metadata>
<defs>
<font id="AttilaSansUniformBasic-Semibold" horiz-adv-x="479" >
  <font-face 
    font-family="Attila Sans Uniform Basic SmBd"
    font-weight="600"
    font-stretch="expanded"
    units-per-em="1000"
    panose-1="0 0 7 5 0 0 0 0 0 0"
    ascent="800"
    descent="-200"
    x-height="506"
    cap-height="700"
    bbox="-79 -241 1172 840"
    underline-thickness="50"
    underline-position="-100"
    unicode-range="U+0020-FB01"
  />
<missing-glyph horiz-adv-x="455" 
d="M373 710v-910h-288v910h288zM303 649h-150v-30h59v-34h-60v-30h151v30h-60v34h60v30zM243 532h-91v-95h151v31h-60v64zM212 501v-33h-30v33h30zM303 412h-151v-30h60v-33h-60v-30h91v63h60v30zM303 358h-30v-60h-121v-31h151v91zM303 247h-91v-51h31v21h30v-43h-91v73
h-30v-103h151v103zM303 89h-151v-102h151v102zM273 59v-42h-91v42h91zM303 -34h-151v-30h64l-64 -43v-30h151v30h-93l64 43h29v30z" />
    <glyph glyph-name="fi" unicode="fi" horiz-adv-x="695" 
d="M125 0v398h-96v108h96v1v55q0 70 62 111.5t167 41.5q75 0 283 -6v-102q-180 5 -273 5q-43 0 -68.5 -20t-25.5 -56v-30h137v-108h-134v-398h-148zM489 506h148v-506h-148v506z" />
    <glyph glyph-name="f_f" unicode="ff" horiz-adv-x="801" 
d="M708 618q-34 0 -53.5 -19t-19.5 -54v-39h137v-108h-134v-398h-148v398h-217v-398h-148v398h-96v108h96v1v57q0 72 53 112.5t147 40.5q30 0 84 -3v-99q-8 0 -21.5 1t-24.5 1.5t-20 0.5q-34 0 -53.5 -19t-19.5 -54v-39h220v1v51q0 75 53 117t147 42q30 0 84 -3v-99
q-8 0 -21.5 1t-24.5 1.5t-20 0.5z" />
    <glyph glyph-name="f_f_i" unicode="ffi" horiz-adv-x="1060" 
d="M719 715q75 0 283 -6v-102q-180 5 -273 5q-43 0 -68.5 -20t-25.5 -56v-30h137v-108h-134v-398h-148v398h-217v-398h-148v398h-96v108h96v1v57q0 72 53 112.5t147 40.5q30 0 84 -3v-99q-8 0 -21.5 1t-24.5 1.5t-20 0.5q-34 0 -53.5 -19t-19.5 -54v-39h220v1v55
q0 70 62 111.5t167 41.5zM854 0v506h148v-506h-148z" />
    <glyph glyph-name="f_t.liga" unicode="ft" horiz-adv-x="815" 
d="M781 398h-153v-179q0 -48 24.5 -74.5t66.5 -26.5q31 0 62 6v-121q-49 -9 -104 -9q-90 0 -142 55t-52 152v197h-210v-398h-148v398h-96v108h96v1v57q0 72 53 112.5t147 40.5q30 0 84 -3v-99q-8 0 -21.5 1t-24.5 1.5t-20 0.5q-34 0 -53.5 -19t-19.5 -54v-39h212q1 0 1 1
v133h145v-39v-91v-4h153v-108z" />
    <glyph glyph-name="t_t.liga" unicode="tt" horiz-adv-x="848" 
d="M814 398h-153v-179q0 -48 24.5 -74.5t66.5 -26.5q30 0 62 6v-121q-50 -9 -104 -9q-90 0 -142 55t-52 152v197h-242v-179q0 -48 24.5 -74.5t66.5 -26.5q31 0 62 6v-121q-49 -9 -104 -9q-90 0 -142 55t-52 152v197h-102v108h101q1 0 1 1v133h145v-39v-91v-4h241q1 0 1 1
v133h145v-39v-91v-4h153v-108z" />
    <glyph glyph-name=".notdef" horiz-adv-x="455" 
d="M373 710v-910h-288v910h288zM303 649h-150v-30h59v-34h-60v-30h151v30h-60v34h60v30zM243 532h-91v-95h151v31h-60v64zM212 501v-33h-30v33h30zM303 412h-151v-30h60v-33h-60v-30h91v63h60v30zM303 358h-30v-60h-121v-31h151v91zM303 247h-91v-51h31v21h30v-43h-91v73
h-30v-103h151v103zM303 89h-151v-102h151v102zM273 59v-42h-91v42h91zM303 -34h-151v-30h64l-64 -43v-30h151v30h-93l64 43h29v30z" />
    <glyph glyph-name=".null" horiz-adv-x="0" 
 />
    <glyph glyph-name="nonmarkingreturn" horiz-adv-x="333" 
 />
    <glyph glyph-name="space" unicode=" " horiz-adv-x="207" 
 />
    <glyph glyph-name="exclam" unicode="!" horiz-adv-x="305" 
d="M92 228l-14 278v194h148v-194l-13 -278h-121zM152 -10q-40 0 -64.5 22.5t-24.5 59.5q0 36 24.5 59t64.5 23t65 -23t25 -59q0 -37 -25 -59.5t-65 -22.5z" />
    <glyph glyph-name="quotedbl" unicode="&#x22;" horiz-adv-x="430" 
d="M189 700l-8 -293h-119l-9 293h136zM241 700h136l-9 -293h-119z" />
    <glyph glyph-name="numbersign" unicode="#" horiz-adv-x="845" 
d="M791 430h-134l-51 -160h185v-96h-216l-56 -174h-129l56 174h-160l-56 -174h-129l56 174h-103v96h134l51 160h-185v96h216l56 174h129l-56 -174h160l56 174h129l-56 -174h103v-96zM477 270l51 160h-160l-51 -160h160z" />
    <glyph glyph-name="dollar" unicode="$" horiz-adv-x="763" 
d="M728 196q0 -100 -91.5 -157t-235.5 -59v-180h-32v180q-152 6 -242 76t-93 185h152q3 -63 52 -103.5t131 -47.5v197l-82 10q-102 12 -164.5 65t-62.5 141q0 95 83 155.5t226 61.5v120h32v-121q136 -6 217.5 -73t82.5 -174h-145q-4 59 -45 96.5t-110 44.5v-193l76 -9
q124 -14 187.5 -72.5t63.5 -142.5zM318 429l51 -6v191q-69 -1 -111.5 -28t-42.5 -71q0 -34 27.5 -57t75.5 -29zM401 89q79 1 125 26.5t46 67.5q0 38 -33.5 63t-93.5 32l-44 5v-194z" />
    <glyph glyph-name="percent" unicode="%" horiz-adv-x="1040" 
d="M256 324q-93 0 -156 56t-63 142q0 84 62 141t157 57q93 0 156 -56t63 -142q0 -84 -62 -141t-157 -57zM715 700h116l-258 -350l-245 -350h-117l259 350zM256 420q45 0 75.5 29t30.5 73t-30.5 73.5t-75.5 29.5t-75.5 -29.5t-30.5 -73.5q0 -43 30.5 -72.5t75.5 -29.5z
M784 376q93 0 156 -56t63 -142q0 -84 -62 -141t-157 -57q-93 0 -156 56t-63 142q0 84 62 141t157 57zM784 280q-45 0 -75.5 -29t-30.5 -73t30.5 -73.5t75.5 -29.5t75.5 29.5t30.5 73.5q0 43 -30.5 72.5t-75.5 29.5z" />
    <glyph glyph-name="ampersand" unicode="&#x26;" horiz-adv-x="820" 
d="M814 0h-170l-63 54q-103 -74 -247 -74q-134 0 -214 52.5t-80 140.5q0 63 43 115t122 87q-51 45 -73.5 83t-22.5 80q0 80 63 131t163 51q92 0 150 -49t58 -128q0 -125 -142 -193l170 -144q45 73 57 173h126q-17 -149 -94 -248zM335 627q-40 0 -65 -25t-25 -64
q0 -53 74 -118q105 46 105 120q0 38 -25 62.5t-64 24.5zM347 80q84 0 150 46l-210 178l-4 -1q-101 -43 -101 -117q0 -48 45.5 -77t119.5 -29z" />
    <glyph glyph-name="quotesingle" unicode="'" horiz-adv-x="242" 
d="M189 700l-8 -293h-119l-9 293h136z" />
    <glyph glyph-name="parenleft" unicode="(" horiz-adv-x="478" 
d="M441 609q-109 -25 -177 -116.5t-68 -212.5q0 -123 68 -214.5t177 -114.5v-101q-166 22 -270 141.5t-104 288.5t104 288.5t270 141.5v-101z" />
    <glyph glyph-name="parenright" unicode=")" 
d="M37 609v101q166 -22 270 -141.5t104 -288.5t-104 -288.5t-270 -141.5v101q109 23 177.5 114.5t68.5 214.5q0 121 -68.5 212.5t-177.5 116.5z" />
    <glyph glyph-name="asterisk" unicode="*" horiz-adv-x="558" 
d="M320 472q10 13 22.5 15t47 -11.5t95.5 -49.5l-44 -77q-89 52 -110 74.5t-13 45.5l-2 1l-36 -21v-1q16 -3 24.5 -13t13.5 -46.5t5 -107.5h-89q0 71 5.5 107.5t13.5 46.5t24 13v1l-22 13l-14 8l-1 -1q8 -23 -13 -45.5t-110 -74.5l-45 77q62 36 96.5 49.5t47 11.5t22.5 -15
l1 1v42h-1q-10 -12 -22.5 -14t-47 11.5t-96.5 49.5l45 77q88 -51 109.5 -74.5t13.5 -46.5l37 20v2q-16 3 -24 13t-13.5 46.5t-5.5 107.5h89q0 -71 -5 -107.5t-13.5 -46.5t-24.5 -13v-2l37 -20h1q-8 23 13.5 46.5t109.5 74.5l44 -77q-61 -36 -95.5 -49.5t-47 -11.5t-22.5 14
l-2 -1v-41z" />
    <glyph glyph-name="plus" unicode="+" horiz-adv-x="621" 
d="M253 115v160q0 22 2 24l-2 2q-3 -2 -24 -2h-172v102h172q21 0 24 -2l2 2q-2 2 -2 24v160h115v-160q0 -22 -2 -24l2 -2q3 2 24 2h172v-102h-172q-21 0 -24 2l-2 -2q2 -2 2 -24v-160h-115z" />
    <glyph glyph-name="comma" unicode="," horiz-adv-x="233" 
d="M25 -95l34 254h149l-74 -254h-109z" />
    <glyph glyph-name="hyphen" unicode="-" horiz-adv-x="474" 
d="M57 374h360v-108h-360v108z" />
    <glyph glyph-name="period" unicode="." horiz-adv-x="268" 
d="M134 -10q-40 0 -65 22.5t-25 59.5q0 36 25 59t65 23t64.5 -23t24.5 -59q0 -37 -24.5 -59.5t-64.5 -22.5z" />
    <glyph glyph-name="slash" unicode="/" horiz-adv-x="553" 
d="M424 754h129l-404 -860h-129z" />
    <glyph glyph-name="zero" unicode="0" horiz-adv-x="754" 
d="M377 -20q-149 0 -243.5 103.5t-94.5 266.5t94.5 266.5t243.5 103.5t243.5 -103.5t94.5 -266.5t-94.5 -266.5t-243.5 -103.5zM377 95q84 0 135 70t51 185q0 117 -51 187.5t-135 70.5t-135 -70.5t-51 -187.5q0 -115 51 -185t135 -70z" />
    <glyph glyph-name="one" unicode="1" horiz-adv-x="466" 
d="M251 0v512h-5q-14 -37 -66 -60t-139 -23v122q96 0 153.5 40.5t72.5 110.5h136v-702h-152z" />
    <glyph glyph-name="two" unicode="2" horiz-adv-x="689" 
d="M51 0v109l194 110q44 25 70.5 40.5t63 42.5t57 50t35.5 55t15 65q0 58 -36.5 95.5t-95.5 37.5q-65 0 -105 -48.5t-43 -129.5h-148q5 132 87 212.5t215 80.5q121 0 199.5 -66.5t78.5 -175.5q0 -97 -67 -172.5t-176 -119.5l-138 -66v-5l381 3v-118h-587z" />
    <glyph glyph-name="three" unicode="3" horiz-adv-x="742" 
d="M380 -20q-152 0 -243.5 66.5t-98.5 184.5h153q2 -63 52.5 -101t135.5 -38q76 0 123 30.5t47 81.5q0 54 -57.5 82t-165.5 28v89q97 0 148.5 27.5t51.5 78.5q0 47 -42 74.5t-108 27.5q-78 0 -123 -37.5t-47 -101.5h-149q5 114 91.5 181t230.5 67q129 0 214 -52t85 -139
q0 -61 -45 -99.5t-122 -46.5v-6q87 -8 140 -56.5t53 -123.5q0 -99 -89.5 -158t-234.5 -59z" />
    <glyph glyph-name="four" unicode="4" horiz-adv-x="748" 
d="M453 0v150h-426v99q130 71 207.5 192.5t82.5 258.5h156q-14 -140 -91 -261t-193 -181v-6h264v248h154v-248h117v-102h-117v-150h-154z" />
    <glyph glyph-name="five" unicode="5" horiz-adv-x="727" 
d="M362 -20q-144 0 -232 65t-92 173h154q5 -56 52.5 -91t117.5 -35q77 0 124.5 39.5t47.5 104.5q0 64 -44.5 103.5t-118.5 39.5q-49 0 -90.5 -20t-60.5 -52h-168l28 393h584v-112h-443l-15 -218h6q20 45 76 73t128 28q121 0 197.5 -65.5t76.5 -169.5q0 -113 -91.5 -184.5
t-236.5 -71.5z" />
    <glyph glyph-name="six" unicode="6" horiz-adv-x="735" 
d="M386 -20q-160 0 -254 92.5t-94 271.5q0 176 94.5 276t248.5 100q120 0 207 -60t96 -159h-148q-7 52 -51 84.5t-107 32.5q-86 0 -136 -61.5t-50 -168.5q0 -21 3 -42h5q21 52 78.5 84.5t141.5 32.5q126 0 203 -64.5t77 -170.5q0 -113 -87 -180.5t-227 -67.5zM377 79
q74 0 121 39.5t47 102.5q0 64 -47 103.5t-121 39.5q-76 0 -124 -38.5t-48 -100.5q0 -65 48 -105.5t124 -40.5z" />
    <glyph glyph-name="seven" unicode="7" horiz-adv-x="686" 
d="M206 0q0 176 82.5 335.5t216.5 244.5v5h-474v115h627v-111q-134 -99 -214 -259.5t-80 -329.5h-158z" />
    <glyph glyph-name="eight" unicode="8" horiz-adv-x="741" 
d="M371 -20q-148 0 -240.5 60t-92.5 156q0 66 47 114.5t120 59.5v5q-55 9 -91.5 50.5t-36.5 97.5q0 87 82 142t212 55t212 -55t82 -142q0 -57 -36.5 -98.5t-92.5 -49.5v-5q73 -10 120.5 -58.5t47.5 -115.5q0 -96 -93 -156t-240 -60zM371 410q66 0 106 29.5t40 76.5t-40 76
t-106 29t-106 -29t-40 -76t40 -76.5t106 -29.5zM371 82q81 0 130.5 32t49.5 85q0 54 -49.5 86.5t-130.5 32.5q-82 0 -131.5 -32.5t-49.5 -86.5q0 -53 49.5 -85t131.5 -32z" />
    <glyph glyph-name="nine" unicode="9" horiz-adv-x="735" 
d="M348 720q161 0 255 -92.5t94 -271.5q0 -176 -94.5 -276t-248.5 -100q-120 0 -207 60t-96 159h148q7 -52 51 -84.5t107 -32.5q86 0 135.5 61.5t49.5 168.5q0 14 -2 42h-5q-21 -52 -78.5 -84.5t-141.5 -32.5q-126 0 -203 64.5t-77 170.5q0 113 87 180.5t226 67.5zM358 621
q-74 0 -121 -39.5t-47 -102.5q0 -64 47 -103.5t121 -39.5q76 0 124 38.5t48 100.5q0 64 -48 105t-124 41z" />
    <glyph glyph-name="colon" unicode=":" horiz-adv-x="288" 
d="M144 359q-40 0 -65 22.5t-25 59.5q0 36 25 59t65 23t64.5 -23t24.5 -59q0 -37 -24.5 -59.5t-64.5 -22.5zM144 -10q-40 0 -65 22.5t-25 59.5q0 36 25 59t65 23t64.5 -23t24.5 -59q0 -37 -24.5 -59.5t-64.5 -22.5z" />
    <glyph glyph-name="semicolon" unicode=";" horiz-adv-x="291" 
d="M147 359q-40 0 -64.5 22.5t-24.5 59.5q0 36 24.5 59t64.5 23t64.5 -23t24.5 -59q0 -37 -24.5 -59.5t-64.5 -22.5zM54 -95l34 254h148l-73 -254h-109z" />
    <glyph glyph-name="less" unicode="&#x3c;" horiz-adv-x="551" 
d="M498 133l-454 150v134l454 150v-122l-271 -81q-39 -11 -53 -11v-6q14 0 53 -11l271 -81v-122z" />
    <glyph glyph-name="equal" unicode="=" horiz-adv-x="604" 
d="M546 478v-95h-489v95h489zM546 317v-95h-489v95h489z" />
    <glyph glyph-name="greater" unicode="&#x3e;" horiz-adv-x="551" 
d="M54 133v122l270 81q39 11 53 11v6q-15 0 -53 11l-270 81v122l454 -150v-134z" />
    <glyph glyph-name="question" unicode="?" horiz-adv-x="633" 
d="M253 228q-1 9 -1 29q0 38 21.5 65.5t52.5 44l62 33t52.5 41.5t21.5 59q0 49 -38 80t-100 31q-68 0 -110.5 -38.5t-42.5 -102.5h-136q0 113 80.5 181.5t212.5 68.5q121 0 198.5 -58t77.5 -150q0 -48 -23 -83t-55.5 -54.5t-65.5 -36t-56 -38.5t-23 -50v-22h-128zM314 -9
q-37 0 -60 21t-23 55t23 55.5t60 21.5q38 0 61 -21.5t23 -55.5t-23.5 -55t-60.5 -21z" />
    <glyph glyph-name="at" unicode="@" horiz-adv-x="1124" 
d="M565 729q133 0 245.5 -58.5t179 -161t66.5 -226.5q0 -119 -58 -201t-141 -82h-145l-9 92h-7q-25 -47 -82.5 -75.5t-137.5 -28.5q-93 0 -147 38t-54 105q0 70 58.5 116t160.5 54l119 13q73 6 73 50q0 30 -29.5 50.5t-77.5 20.5q-56 0 -92.5 -28.5t-39.5 -70.5h-147
q10 84 86 136t197 52q115 0 184 -50t69 -149v-175l18 -130q68 2 119 78.5t51 185.5q0 117 -62.5 213.5t-167.5 150.5t-228 54q-198 0 -332.5 -133t-134.5 -325q0 -194 135 -326.5t328 -132.5q157 0 285 90v-29q-122 -87 -285 -87q-208 0 -351.5 140.5t-143.5 343.5
q0 133 64.5 244t179 176.5t254.5 65.5zM688 211v47h-7q-26 -13 -68 -19l-88 -11q-99 -13 -99 -78q0 -69 104 -69q72 0 115 35t43 95z" />
    <glyph glyph-name="A" unicode="A" horiz-adv-x="868" 
d="M697 0l-86 187h-355l-86 -187h-159l327 700h192l328 -700h-161zM306 295h256l-128 279z" />
    <glyph glyph-name="B" unicode="B" horiz-adv-x="757" 
d="M63 0v700h357q125 0 197 -49t72 -135q0 -61 -38 -100.5t-104 -47.5v-6q80 -7 126 -52.5t46 -116.5q0 -90 -72.5 -141.5t-199.5 -51.5h-384zM215 400h186q62 0 97 27.5t35 75.5q0 47 -35.5 74t-96.5 27h-186v-204zM215 99h213q61 0 96.5 28t35.5 76q0 49 -35.5 77
t-96.5 28h-213v-209z" />
    <glyph glyph-name="C" unicode="C" horiz-adv-x="915" 
d="M468 -20q-192 0 -313 103t-121 267t121 267t313 103q175 0 290 -83t123 -215l-155 -4q-8 83 -80 135t-178 52q-122 0 -199 -71t-77 -184q0 -111 77 -181.5t199 -70.5q104 0 176 51.5t81 133.5h155q-8 -134 -122.5 -218.5t-289.5 -84.5z" />
    <glyph glyph-name="D" unicode="D" horiz-adv-x="863" 
d="M63 0v700h330q200 0 318 -94t118 -256q0 -160 -117 -255t-319 -95h-330zM218 109h169q131 0 209 64.5t78 176.5q0 110 -77 175.5t-210 65.5h-169v-482z" />
    <glyph glyph-name="E" unicode="E" horiz-adv-x="683" 
d="M631 588h-416v-184h363v-102h-363v-187h423v-115h-575v700h568v-112z" />
    <glyph glyph-name="F" unicode="F" horiz-adv-x="652" 
d="M614 585h-396v-192h373v-109h-373v-284h-155v700h551v-115z" />
    <glyph glyph-name="G" unicode="G" horiz-adv-x="964" 
d="M444 -14q-179 0 -294.5 100.5t-115.5 260.5q0 165 127 269t327 104q167 0 284 -73t135 -192l-155 -5q-20 74 -92 117.5t-172 43.5q-131 0 -213.5 -71.5t-82.5 -186.5q0 -120 82.5 -192t217.5 -72q107 0 183.5 52t96.5 137h-338v96h486v-374h-148l3 155h-6
q-33 -75 -121 -122t-204 -47z" />
    <glyph glyph-name="H" unicode="H" horiz-adv-x="806" 
d="M743 0h-156v292h-369v-292h-155v700h155v-286h369v286h156v-700z" />
    <glyph glyph-name="I" unicode="I" horiz-adv-x="278" 
d="M63 0v700h152v-700h-152z" />
    <glyph glyph-name="J" unicode="J" horiz-adv-x="635" 
d="M177 256q0 -72 34 -111.5t96 -39.5q58 0 90.5 42t32.5 118v435h152v-435q0 -135 -71.5 -208.5t-203.5 -73.5q-133 0 -204.5 71t-71.5 202h146z" />
    <glyph glyph-name="K" unicode="K" horiz-adv-x="783" 
d="M758 0h-183l-242 316l-115 -108v-208h-155v700h155v-330l342 330h180l-303 -286z" />
    <glyph glyph-name="L" unicode="L" horiz-adv-x="598" 
d="M215 115h348v-115h-500v700h152v-585z" />
    <glyph glyph-name="M" unicode="M" horiz-adv-x="1035" 
d="M63 0v700h225l230 -535l229 535h225v-700h-154l10 541l-234 -541h-153l-234 541l10 -541h-154z" />
    <glyph glyph-name="N" unicode="N" horiz-adv-x="845" 
d="M630 700h152v-700h-161l-412 516l6 -516h-152v700h161l412 -513z" />
    <glyph glyph-name="O" unicode="O" horiz-adv-x="955" 
d="M477 -20q-196 0 -319.5 103.5t-123.5 266.5t123.5 266.5t319.5 103.5t319.5 -103t123.5 -267t-123.5 -267t-319.5 -103zM477 98q126 0 205.5 70.5t79.5 181.5q0 113 -79.5 184t-205.5 71q-125 0 -205 -71.5t-80 -183.5q0 -111 80 -181.5t205 -70.5z" />
    <glyph glyph-name="P" unicode="P" horiz-adv-x="713" 
d="M63 0v700h318q139 0 220.5 -64.5t81.5 -174.5t-81.5 -174.5t-220.5 -64.5h-163v-222h-155zM218 334h164q65 0 105 34.5t40 92.5t-40 92.5t-105 34.5h-164v-254z" />
    <glyph glyph-name="Q" unicode="Q" horiz-adv-x="955" 
d="M715 -100l-93 105q-60 -25 -145 -25q-197 0 -320 101t-123 269q0 167 123 268.5t320 101.5q198 0 320.5 -101.5t122.5 -268.5q0 -95 -45.5 -174t-123.5 -127v-2l128 -147h-164zM464 96q49 0 75 18v2l-143 158h163l109 -119q43 34 68 86t25 109q0 114 -79 186t-205 72
q-125 0 -204 -72t-79 -186q0 -110 75.5 -182t194.5 -72z" />
    <glyph glyph-name="R" unicode="R" horiz-adv-x="777" 
d="M63 0v700h346q137 0 218 -54.5t81 -146.5q0 -72 -48 -116.5t-127 -44.5h-4v-6h4q87 0 136 -47t53 -132l7 -153h-159l-6 134q-3 57 -41.5 87.5t-107.5 30.5h-197v-252h-155zM218 358h185q68 0 108.5 32t40.5 86t-40.5 86.5t-108.5 32.5h-185v-237z" />
    <glyph glyph-name="S" unicode="S" horiz-adv-x="763" 
d="M395 -20q-163 0 -260.5 71t-100.5 190h152q3 -69 60 -110.5t152 -41.5q80 0 127 25.5t47 68.5q0 38 -33.5 63t-93.5 32l-158 19q-102 12 -164.5 65t-62.5 141q0 96 84.5 156.5t230.5 60.5q147 0 236 -67.5t90 -180.5h-145q-4 65 -53.5 103.5t-130.5 38.5q-71 0 -114 -27
t-43 -72q0 -34 27.5 -57t75.5 -29l159 -18q124 -14 187.5 -72.5t63.5 -142.5q0 -101 -93.5 -158.5t-239.5 -57.5z" />
    <glyph glyph-name="T" unicode="T" horiz-adv-x="682" 
d="M658 700v-115h-239v-585h-156v585h-239v115h634z" />
    <glyph glyph-name="U" unicode="U" horiz-adv-x="844" 
d="M422 -20q-172 0 -270.5 93t-98.5 255v372h152v-360q0 -111 57 -173t160 -62t160 62t57 173v360h152v-372q0 -162 -98.5 -255t-270.5 -93z" />
    <glyph glyph-name="V" unicode="V" horiz-adv-x="822" 
d="M322 0l-311 700h162l239 -548l240 548h159l-311 -700h-178z" />
    <glyph glyph-name="W" unicode="W" horiz-adv-x="1189" 
d="M1013 700h159l-219 -700h-184l-174 543l-175 -543h-187l-215 700h161l157 -535l170 535h179l171 -535z" />
    <glyph glyph-name="X" unicode="X" horiz-adv-x="812" 
d="M791 0h-179l-214 255l-207 -255h-170l294 353l-291 347h179l208 -248l204 248h169l-290 -346z" />
    <glyph glyph-name="Y" unicode="Y" horiz-adv-x="826" 
d="M339 0v224l-332 476h176l241 -345l236 345h159l-325 -476v-224h-155z" />
    <glyph glyph-name="Z" unicode="Z" horiz-adv-x="700" 
d="M32 0v111l455 477h-447v112h625v-108l-453 -477h456v-115h-636z" />
    <glyph glyph-name="bracketleft" unicode="[" horiz-adv-x="370" 
d="M94 -150v860h243v-88h-127v-684h127v-88h-243z" />
    <glyph glyph-name="bracketright" unicode="]" horiz-adv-x="371" 
d="M276 -150h-242v88h127v684h-127v88h242v-860z" />
    <glyph glyph-name="underscore" unicode="_" horiz-adv-x="500" 
d="M57 0h386v-88h-386v88z" />
    <glyph glyph-name="a" unicode="a" horiz-adv-x="653" 
d="M235 -12q-93 0 -147 38t-54 105q0 70 58.5 116t160.5 54l119 13q73 6 73 50q0 30 -29.5 50.5t-77.5 20.5q-56 0 -92.5 -28.5t-39.5 -70.5h-147q10 84 86 136t197 52q115 0 184 -50t69 -149v-175l21 -150h-145l-9 92h-7q-25 -47 -82.5 -75.5t-137.5 -28.5zM289 81
q72 0 115 35t43 95v47h-7q-26 -13 -68 -19l-88 -11q-99 -13 -99 -78q0 -69 104 -69z" />
    <glyph glyph-name="b" unicode="b" horiz-adv-x="734" 
d="M403 523q127 0 209.5 -75.5t82.5 -194.5q0 -117 -82 -193.5t-210 -76.5q-65 0 -118 27.5t-73 71.5h-10v-82h-144v710h148v-287h6q20 44 72.5 72t118.5 28zM371 85q74 0 123 47t49 121q0 72 -48.5 120t-123.5 48q-74 0 -122.5 -47t-48.5 -121q0 -73 48 -120.5t123 -47.5z
" />
    <glyph glyph-name="c" unicode="c" horiz-adv-x="700" 
d="M359 -20q-140 0 -230 74t-90 199q0 124 89.5 198.5t230.5 74.5q130 0 211.5 -62.5t89.5 -160.5l-141 -4q-7 55 -51 90t-108 35q-74 0 -121.5 -47.5t-47.5 -122.5t47.5 -122t121.5 -47q64 0 109 34.5t52 89.5l145 -1q-8 -100 -90.5 -164t-216.5 -64z" />
    <glyph glyph-name="d" unicode="d" horiz-adv-x="733" 
d="M528 710h148v-710h-145v83h-9q-20 -44 -72.5 -72t-118.5 -28q-127 0 -209.5 75.5t-82.5 194.5q0 117 82 193.5t210 76.5q65 0 118 -27.5t73 -71.5h6v286zM363 85q74 0 122.5 47t48.5 121q0 73 -48 120.5t-123 47.5q-74 0 -123 -47t-49 -121q0 -72 48.5 -120t123.5 -48z
" />
    <glyph glyph-name="e" unicode="e" horiz-adv-x="680" 
d="M646 273q0 -24 -3 -39h-454q4 -70 49 -111t115 -41q56 0 98.5 26.5t52.5 69.5l134 -9q-11 -82 -91.5 -135.5t-197.5 -53.5q-136 0 -223 74.5t-87 200.5q0 125 86.5 198t220.5 73q131 0 215.5 -69t84.5 -184zM191 317h307q0 50 -42.5 85t-108.5 35q-63 0 -105.5 -32.5
t-50.5 -87.5z" />
    <glyph glyph-name="f" unicode="f" horiz-adv-x="436" 
d="M125 0v398h-96v108h96v1v57q0 72 53 112.5t147 40.5q30 0 84 -3v-99q-8 0 -21.5 1t-24.5 1.5t-20 0.5q-34 0 -53.5 -19t-19.5 -54v-39h137v-108h-134v-398h-148z" />
    <glyph glyph-name="g" unicode="g" horiz-adv-x="709" 
d="M445 124q118 0 186.5 -42.5t68.5 -117.5q0 -87 -97.5 -135.5t-262.5 -48.5q-149 0 -231 41.5t-82 114.5q0 67 67 108q-50 33 -50 87q0 37 25 63.5t67 36.5v5q-28 19 -45.5 51t-17.5 67q0 79 80 125.5t209 46.5q84 0 149 -20q35 116 183 116v-93q-92 0 -112 -57
q66 -46 66 -117q0 -77 -74.5 -122.5t-204.5 -45.5q-31 0 -85 4.5t-74 4.5q-21 0 -33.5 -10t-12.5 -26q0 -36 65 -36h216zM360 442q-66 0 -105 -23t-39 -63q0 -39 39.5 -62.5t106.5 -23.5q65 0 103.5 23t38.5 63q0 39 -38.5 62.5t-105.5 23.5zM355 -131q91 0 143 21t52 59
q0 30 -29.5 46.5t-81.5 16.5h-211q-15 0 -22 1q-34 -28 -34 -60q0 -40 48 -62t135 -22z" />
    <glyph glyph-name="h" unicode="h" horiz-adv-x="671" 
d="M393 516q105 0 165 -63t60 -173v-280h-148v267q0 65 -34.5 103t-94.5 38q-63 0 -99 -39.5t-36 -108.5v-260h-148v710h148v-292h3q22 46 70.5 72t113.5 26z" />
    <glyph glyph-name="i" unicode="i" horiz-adv-x="263" 
d="M131 585q-46 0 -74 21.5t-28 56.5t28 56.5t74 21.5t74 -21.5t28 -56.5t-28 -56.5t-74 -21.5zM58 506h148v-506h-148v506z" />
    <glyph glyph-name="j" unicode="j" horiz-adv-x="267" 
d="M140 585q-46 0 -74 21.5t-28 56.5t28 56.5t74 21.5t74 -21.5t28 -56.5t-28 -56.5t-74 -21.5zM-3 -203q-39 0 -76 4v110q24 -5 52 -5q44 0 68.5 24.5t24.5 68.5v507h148v-506q0 -95 -58 -149t-159 -54z" />
    <glyph glyph-name="k" unicode="k" horiz-adv-x="670" 
d="M474 0l-193 219l-75 -61v-158h-148v710h148v-398l254 194h177l-251 -203l270 -303h-182z" />
    <glyph glyph-name="l" unicode="l" horiz-adv-x="263" 
d="M58 710h148v-710h-148v710z" />
    <glyph glyph-name="m" unicode="m" horiz-adv-x="1073" 
d="M789 516q108 0 170 -63t62 -173v-280h-148v267q0 65 -33 103t-90 38q-61 0 -96.5 -36t-35.5 -98v-274h-148v267q0 65 -34.5 103t-94.5 38q-63 0 -99 -39.5t-36 -108.5v-260h-148v506h144v-88h7q22 46 70.5 72t113.5 26q133 0 191 -98h1q26 46 80 72t124 26z" />
    <glyph glyph-name="n" unicode="n" horiz-adv-x="671" 
d="M393 516q105 0 165 -63t60 -173v-280h-148v267q0 65 -34.5 103t-94.5 38q-63 0 -99 -39.5t-36 -108.5v-260h-148v506h144v-88h7q22 46 70.5 72t113.5 26z" />
    <glyph glyph-name="o" unicode="o" horiz-adv-x="725" 
d="M362 -20q-140 0 -231.5 76.5t-91.5 196.5q0 119 91 196t232 77t232.5 -76.5t91.5 -196.5q0 -119 -91 -196t-233 -77zM362 85q74 0 123 47t49 121q0 75 -48 123t-124 48q-74 0 -122.5 -48t-48.5 -123q0 -73 48 -120.5t123 -47.5z" />
    <glyph glyph-name="p" unicode="p" horiz-adv-x="734" 
d="M403 523q127 0 209.5 -75.5t82.5 -194.5q0 -117 -82 -193.5t-210 -76.5q-65 0 -118 27.5t-73 71.5h-6v-282h-148v706h148v-83h6q20 44 72.5 72t118.5 28zM371 85q74 0 123 47t49 121q0 72 -48.5 120t-123.5 48q-74 0 -122.5 -47t-48.5 -121q0 -73 48 -120.5t123 -47.5z
" />
    <glyph glyph-name="q" unicode="q" horiz-adv-x="734" 
d="M529 506h148v-706h-148v283h-7q-20 -44 -72.5 -72t-118.5 -28q-127 0 -209.5 75.5t-82.5 194.5q0 117 82 193.5t210 76.5q65 0 118 -27.5t73 -71.5h7v82zM363 85q74 0 122.5 47t48.5 121q0 73 -48 120.5t-123 47.5q-74 0 -123 -47t-49 -121q0 -72 48.5 -120t123.5 -48z
" />
    <glyph glyph-name="r" unicode="r" horiz-adv-x="445" 
d="M58 0v506h148l-4 -95h8q11 47 52 74t101 27q26 0 55 -5v-119q-62 2 -67 2q-70 0 -107.5 -44t-37.5 -125v-221h-148z" />
    <glyph glyph-name="s" unicode="s" horiz-adv-x="608" 
d="M314 -19q-119 0 -195 48.5t-88 128.5l141 1q22 -90 148 -90q51 0 81 16t30 45q0 52 -83 63l-111 12q-96 11 -142.5 52t-46.5 102q0 75 67.5 121t175.5 46q112 0 185 -49.5t80 -126.5h-139q-5 42 -40 66t-91 24q-46 0 -73 -17t-27 -46q0 -47 70 -56l112 -13
q94 -10 151 -50.5t57 -107.5q0 -77 -73 -123t-189 -46z" />
    <glyph glyph-name="t" unicode="t" horiz-adv-x="461" 
d="M323 -6q-90 0 -142 55t-52 152v197h-102v108h101q1 0 1 1v133h145v-39v-91v-4h153v-108h-153v-179q0 -48 24.5 -74.5t66.5 -26.5q31 0 62 6v-121q-49 -9 -104 -9z" />
    <glyph glyph-name="u" unicode="u" horiz-adv-x="671" 
d="M613 174l7 -174h-143l-6 89h-9q-19 -45 -69.5 -72t-113.5 -27q-105 0 -165.5 64.5t-60.5 172.5v279h148v-266q0 -65 35.5 -103t95.5 -38q61 0 97 39t36 109v259h148v-332z" />
    <glyph glyph-name="v" unicode="v" horiz-adv-x="668" 
d="M258 0l-242 506h161l166 -368l167 368h142l-230 -506h-164z" />
    <glyph glyph-name="w" unicode="w" horiz-adv-x="992" 
d="M206 0l-185 506h155l125 -361l129 361h151l129 -361l126 361h135l-186 -506h-154l-132 368l-132 -368h-161z" />
    <glyph glyph-name="x" unicode="x" horiz-adv-x="661" 
d="M639 0h-176l-142 164l-136 -164h-162l218 255l-218 251h172l139 -159l140 159h163l-225 -247z" />
    <glyph glyph-name="y" unicode="y" horiz-adv-x="678" 
d="M520 506h142l-238 -535q-78 -180 -262 -180q-47 0 -105 4v109q44 -4 100 -4q95 0 131 80l8 18l-280 508h155l188 -364z" />
    <glyph glyph-name="z" unicode="z" horiz-adv-x="566" 
d="M40 0v112l312 286h-308v108h478v-110l-308 -287h315v-109h-489z" />
    <glyph glyph-name="braceleft" unicode="{" horiz-adv-x="415" 
d="M150 282v-4q48 0 76 -34.5t28 -94.5v-135q0 -29 18 -46t49 -17h50v-101h-59q-84 0 -132 41.5t-48 113.5v130q0 46 -24 72t-67 26v94q43 0 67 26t24 72v130q0 72 48 113.5t132 41.5h59v-101h-50q-31 0 -49 -17t-18 -46v-135q0 -60 -28 -94.5t-76 -34.5z" />
    <glyph glyph-name="bar" unicode="|" horiz-adv-x="311" 
d="M85 790h141v-900h-141v900z" />
    <glyph glyph-name="braceright" unicode="}" horiz-adv-x="415" 
d="M283 425q0 -46 24 -72t67 -26v-94q-43 0 -67 -26t-24 -72v-130q0 -72 -48 -113.5t-132 -41.5h-59v101h50q31 0 49 17t18 46v135q0 60 28 94.5t76 34.5v4q-48 0 -76 34.5t-28 94.5v135q0 29 -18 46t-49 17h-50v101h59q84 0 132 -41.5t48 -113.5v-130z" />
    <glyph glyph-name="guillemotleft" unicode="&#xab;" horiz-adv-x="595" 
d="M333 506l-153 -193l153 -194h-135l-161 194l161 193h135zM540 506l-153 -193l153 -194h-135l-161 194l161 193h135z" />
    <glyph glyph-name="uni00AD" unicode="&#xad;" horiz-adv-x="474" 
d="M57 374h360v-108h-360v108z" />
    <glyph glyph-name="degree" unicode="&#xb0;" horiz-adv-x="387" 
d="M194 400q-73 0 -123 45.5t-50 114.5q0 67 49.5 113.5t123.5 46.5q73 0 122.5 -45.5t49.5 -114.5q0 -68 -49 -114t-123 -46zM194 479q34 0 58.5 23.5t24.5 57.5t-24 57.5t-59 23.5t-59.5 -23.5t-24.5 -57.5t24.5 -57.5t59.5 -23.5z" />
    <glyph glyph-name="guillemotright" unicode="&#xbb;" horiz-adv-x="595" 
d="M55 506h135l161 -193l-161 -194h-135l153 194zM262 506h135l161 -193l-161 -194h-135l153 194z" />
    <glyph glyph-name="endash" unicode="&#x2013;" horiz-adv-x="654" 
d="M57 374h540v-108h-540v108z" />
    <glyph glyph-name="emdash" unicode="&#x2014;" horiz-adv-x="1014" 
d="M57 374h900v-108h-900v108z" />
    <glyph glyph-name="quoteleft" unicode="&#x2018;" horiz-adv-x="275" 
d="M154 598q34 0 55.5 -21.5t21.5 -55.5q0 -38 -24.5 -62.5t-64.5 -24.5q-43 0 -70.5 34.5t-27.5 89.5q0 66 45 107t116 41v-53q-42 0 -69 -19t-27 -48h5q15 12 40 12z" />
    <glyph glyph-name="quoteright" unicode="&#x2019;" horiz-adv-x="275" 
d="M133 708q43 0 70.5 -34.5t27.5 -89.5q0 -66 -45 -107t-116 -41v53q42 0 69 19t27 48h-5q-15 -12 -40 -12q-34 0 -55.5 21.5t-21.5 55.5q0 38 24.5 62.5t64.5 24.5z" />
    <glyph glyph-name="quotesinglbase" unicode="&#x201a;" horiz-adv-x="275" 
d="M70 -118v53q42 0 69 19t27 48h-5q-15 -12 -40 -12q-34 0 -55.5 21.5t-21.5 55.5q0 38 24.5 62.5t64.5 24.5q43 0 70.5 -34.5t27.5 -89.5q0 -66 -45 -107t-116 -41z" />
    <glyph glyph-name="quotedblleft" unicode="&#x201c;" 
d="M206 706v-53q-43 0 -70 -19t-27 -48h5q15 12 41 12q33 0 54.5 -21.5t21.5 -55.5q0 -38 -24.5 -62.5t-63.5 -24.5q-44 0 -71.5 34.5t-27.5 89.5q0 66 45.5 107t116.5 41zM410 706v-53q-43 0 -70 -19t-27 -48h5q15 12 41 12q33 0 54.5 -21.5t21.5 -55.5q0 -38 -24.5 -62.5
t-63.5 -24.5q-44 0 -71.5 34.5t-27.5 89.5q0 66 45.5 107t116.5 41z" />
    <glyph glyph-name="quotedblright" unicode="&#x201d;" 
d="M133 708q43 0 70.5 -34.5t27.5 -89.5q0 -66 -45 -107t-116 -41v53q42 0 69 19t27 48h-5q-15 -12 -40 -12q-34 0 -55.5 21.5t-21.5 55.5q0 38 24.5 62.5t64.5 24.5zM337 708q43 0 70.5 -34.5t27.5 -89.5q0 -66 -45 -107t-116 -41v53q42 0 69 19t27 48h-5q-15 -12 -40 -12
q-34 0 -55.5 21.5t-21.5 55.5q0 38 24.5 62.5t64.5 24.5z" />
    <glyph glyph-name="quotedblbase" unicode="&#x201e;" 
d="M70 -118v53q42 0 69 19t27 48h-5q-15 -12 -40 -12q-34 0 -55.5 21.5t-21.5 55.5q0 38 24.5 62.5t64.5 24.5q43 0 70.5 -34.5t27.5 -89.5q0 -66 -45 -107t-116 -41zM274 -118v53q42 0 69 19t27 48h-5q-15 -12 -40 -12q-34 0 -55.5 21.5t-21.5 55.5q0 38 24.5 62.5
t64.5 24.5q43 0 70.5 -34.5t27.5 -89.5q0 -66 -45 -107t-116 -41z" />
    <glyph glyph-name="guilsinglleft" unicode="&#x2039;" horiz-adv-x="388" 
d="M333 506l-153 -193l153 -194h-135l-161 194l161 193h135z" />
    <glyph glyph-name="guilsinglright" unicode="&#x203a;" horiz-adv-x="388" 
d="M55 506h135l161 -193l-161 -194h-135l153 194z" />
    <glyph glyph-name="Euro" unicode="&#x20ac;" horiz-adv-x="914" 
d="M734 277l145 -1q-8 -131 -113 -213.5t-265 -82.5q-159 0 -266 86t-127 226h-84v29h81q-1 10 -1 29t1 29h-81v29h84q20 140 127 226t266 86q160 0 265 -82t111 -210l-145 -4q-7 80 -71 132t-160 52q-95 0 -161.5 -54.5t-83.5 -145.5h326v-29h-330q-1 -9 -1 -29t1 -29h330
v-29h-326q17 -89 83.5 -143t161.5 -54q94 0 159.5 51.5t73.5 130.5z" />
    <glyph glyph-name="minus" unicode="&#x2212;" horiz-adv-x="594" 
d="M537 401v-102h-480v102h480z" />
    <glyph glyph-name="g.ss01" horiz-adv-x="740" 
d="M365 -220q-125 0 -210 54.5t-96 144.5h146q12 -46 55 -71.5t102 -25.5q79 0 125.5 44.5t46.5 120.5v62h-5q-29 -46 -84 -72.5t-125 -26.5q-123 0 -202 71.5t-79 185.5q0 113 79 184.5t202 71.5q67 0 124.5 -26.5t88.5 -72.5h4v82h145v-439q0 -139 -86 -213t-231 -74z
M364 102q77 0 125.5 46t48.5 119t-48.5 118.5t-125.5 45.5t-125 -45.5t-48 -118.5t48 -119t125 -46z" />
    <glyph glyph-name="r.ss02" horiz-adv-x="556" 
d="M58 0v506h148l-4 -95h7q20 47 61.5 73.5t95.5 26.5q77 0 121.5 -49t44.5 -134v-52h-144v39q0 40 -23 63.5t-62 23.5q-46 0 -71.5 -38.5t-25.5 -104.5v-259h-148z" />
    </font>
</defs>
</svg>
